<svg width="1440" height="1024" viewBox="0 0 1440 1024" fill="none" xmlns="http://www.w3.org/2000/svg">
<g clip-path="url(#clip0_135_160)">
<rect width="1440" height="1024" fill="#030E21"/>
<path opacity="0.5" d="M180.642 888.3C185.703 903.806 188.05 912.603 197.606 927.166C199.906 929.987 202.114 927.394 201.389 924.44C201.396 923.881 201.256 922.865 201.277 921.779C205.901 819.995 302.331 764.258 387.619 732.259C402.656 726.618 417.264 722.412 431.511 718.31C465.49 708.528 497.42 699.335 528.234 672.662C561.977 643.457 591.603 582.91 599.002 539.095C600.868 527.984 595.765 521.388 590.026 513.97C586.779 509.773 583.329 505.314 580.823 499.626C553.916 438.708 612.195 377.631 674.69 392.726C749.471 410.794 755.678 512.794 685.885 543.053C683.612 544.038 680.426 544.625 677.126 545.233C671.363 546.295 665.253 547.421 663.054 550.843C649.211 619.216 625.465 687.779 566.782 730.575C527.084 759.538 481.992 774.722 436.917 789.899C405.663 800.424 374.416 810.945 344.983 826.055C293.606 852.418 252.429 912.719 270.349 971.704C300.398 1070.59 419.225 1067.06 492.038 1017.53C514.844 1002.03 581.796 938.301 586.567 912.172C587.386 907.691 586.518 902.654 585.646 897.589C584.954 893.576 584.26 889.546 584.399 885.762C586.562 830.953 654.697 801.991 698.888 831.5C770.049 879.001 721.429 989.588 638.371 965.8L635.206 967.16C563.03 1056.36 483.367 1133.47 359.224 1115.12C225.821 1095.38 111.593 971.972 105.168 836.03C100.101 728.712 152.805 642.836 206.34 555.605C244.714 493.079 283.514 429.856 301.772 357.543C301.992 356.671 302.261 355.619 302.567 354.423C305.481 343.027 311.746 318.524 310.958 311.768C310.61 308.834 305.536 301.758 299.92 293.926C294.14 285.865 287.786 277.002 285.417 271.031C249.432 180.318 360.099 99.8214 436.138 158.276C507.311 213.003 470.984 322.786 384.206 330.86C372.457 411.36 337.235 485.292 295.002 554.13C283.793 572.399 271.967 589.95 260.268 607.314C219.307 668.106 179.894 726.599 173.9 805.569C172.434 824.825 173.471 871.612 180.642 888.3Z" fill="url(#paint0_linear_135_160)" fill-opacity="0.41"/>
<path opacity="0.5" d="M1483.6 121.052C1477.42 106.798 1474.41 98.6642 1464.05 85.7043C1461.62 83.234 1459.75 85.8901 1460.7 88.6267C1460.75 89.1572 1460.97 90.109 1461.05 91.14C1465.73 188.078 1379.24 249.523 1301.21 287.465C1287.45 294.154 1273.97 299.443 1260.83 304.602C1229.48 316.905 1200.01 328.467 1173.17 356.506C1143.77 387.207 1121.07 447.265 1117.95 489.475C1117.17 500.178 1122.6 505.979 1128.7 512.503C1132.15 516.193 1135.82 520.115 1138.71 525.286C1169.65 580.66 1119.82 643.772 1059.21 635.023C986.683 624.548 971.712 528.371 1035.2 493.46C1037.27 492.323 1040.24 491.482 1043.32 490.612C1048.69 489.092 1054.38 487.48 1056.16 484.039C1063.2 417.965 1079.61 350.829 1131.45 305.018C1166.52 274.016 1207.93 255.601 1249.33 237.193C1278.03 224.429 1306.72 211.668 1333.29 194.717C1379.66 165.141 1413.34 104.288 1391.1 49.946C1353.79 -41.1564 1241.42 -27.2197 1176.78 26.2312C1156.53 42.9589 1098.71 109.361 1096.52 134.565C1096.14 138.888 1097.41 143.588 1098.69 148.313C1099.7 152.057 1100.72 155.817 1100.93 159.418C1103.76 211.587 1041.72 245.121 997.183 221.072C925.469 182.363 961.728 73.16 1042.61 88.3217L1045.49 86.7498C1106 -4.27343 1174.68 -84.4916 1294.04 -78.1409C1422.31 -71.3093 1541.63 35.553 1559.83 163.9C1574.19 265.222 1531.86 351.356 1488.86 438.847C1458.03 501.561 1426.87 564.972 1415.99 635.176C1415.86 636.022 1415.7 637.044 1415.52 638.206C1413.77 649.273 1410.01 673.067 1411.36 679.404C1411.95 682.156 1417.39 688.414 1423.42 695.342C1429.62 702.471 1436.43 710.31 1439.21 715.762C1481.41 798.583 1383.63 884.777 1306.32 836.114C1233.95 790.554 1258.62 683.207 1340.2 667.822C1344.17 590.435 1370.99 517.185 1404.91 448.142C1413.91 429.819 1423.56 412.121 1433.11 394.612C1466.54 333.314 1498.71 274.332 1497.36 198.908C1497.03 180.517 1491.88 136.24 1483.6 121.052Z" fill="url(#paint1_linear_135_160)" fill-opacity="0.24"/>
</g>
<defs>
<linearGradient id="paint0_linear_135_160" x1="656.302" y1="517.804" x2="249.052" y2="991.032" gradientUnits="userSpaceOnUse">
<stop stop-color="#00DDFF"/>
<stop offset="1" stop-color="#5C7CFA" stop-opacity="0.32"/>
</linearGradient>
<linearGradient id="paint1_linear_135_160" x1="1065.51" y1="514.769" x2="1409.57" y2="29.7199" gradientUnits="userSpaceOnUse">
<stop stop-color="#00DDFF"/>
<stop offset="1" stop-color="#5C7CFA" stop-opacity="0.32"/>
</linearGradient>
<clipPath id="clip0_135_160">
<rect width="1440" height="1024" fill="white"/>
</clipPath>
</defs>
</svg>
