<svg width="47" height="47" viewBox="0 0 47 47" fill="none" xmlns="http://www.w3.org/2000/svg">
<path d="M23.6557 33.2917C24.0741 33.2917 24.4221 33.1509 24.6995 32.8692C24.9769 32.5878 25.1156 32.2391 25.1156 31.8229V23.0104C25.1156 22.5943 24.9739 22.2454 24.6907 21.9637C24.4077 21.6824 24.0568 21.5417 23.6381 21.5417C23.2197 21.5417 22.8717 21.6824 22.5943 21.9637C22.3169 22.2454 22.1781 22.5943 22.1781 23.0104V31.8229C22.1781 32.2391 22.3198 32.5878 22.6031 32.8692C22.8861 33.1509 23.2369 33.2917 23.6557 33.2917ZM23.499 17.9188C23.9566 17.9188 24.3404 17.7686 24.6505 17.4683C24.9606 17.168 25.1156 16.7959 25.1156 16.3521C25.1156 15.8804 24.9609 15.4852 24.6515 15.1663C24.3421 14.8471 23.9585 14.6875 23.501 14.6875C23.0434 14.6875 22.6596 14.8471 22.3495 15.1663C22.0394 15.4852 21.8844 15.8804 21.8844 16.3521C21.8844 16.7959 22.0391 17.168 22.3485 17.4683C22.6579 17.7686 23.0414 17.9188 23.499 17.9188ZM23.5132 43.0833C20.8127 43.0833 18.275 42.5693 15.9002 41.5411C13.525 40.513 11.4481 39.1096 9.66926 37.3307C7.89044 35.5519 6.48697 33.4738 5.45884 31.0964C4.43072 28.719 3.91666 26.1787 3.91666 23.4755C3.91666 20.7723 4.43072 18.2321 5.45884 15.8547C6.48697 13.4773 7.89044 11.4073 9.66926 9.6448C11.4481 7.8823 13.5262 6.48698 15.9036 5.45886C18.281 4.43073 20.8213 3.91667 23.5245 3.91667C26.2277 3.91667 28.7679 4.43073 31.1453 5.45886C33.5227 6.48698 35.5927 7.8823 37.3552 9.6448C39.1177 11.4073 40.513 13.4799 41.5411 15.8625C42.5693 18.2451 43.0833 20.7865 43.0833 23.4868C43.0833 26.1873 42.5693 28.725 41.5411 31.0998C40.513 33.475 39.1177 35.5489 37.3552 37.3219C35.5927 39.0945 33.5201 40.498 31.1375 41.5323C28.7549 42.5663 26.2135 43.0833 23.5132 43.0833ZM23.5245 40.1458C28.1429 40.1458 32.0677 38.5221 35.2989 35.2745C38.5302 32.0269 40.1458 28.094 40.1458 23.4755C40.1458 18.8571 38.5333 14.9323 35.3083 11.701C32.0832 8.4698 28.1471 6.85417 23.5 6.85417C18.8979 6.85417 14.9731 8.46669 11.7255 11.6917C8.47794 14.9168 6.85416 18.8529 6.85416 23.5C6.85416 28.1021 8.47794 32.0269 11.7255 35.2745C14.9731 38.5221 18.906 40.1458 23.5245 40.1458Z" fill="#077EDD"/>
</svg>
