<svg width="47" height="47" viewBox="0 0 47 47" fill="none" xmlns="http://www.w3.org/2000/svg">
<path fill-rule="evenodd" clip-rule="evenodd" d="M24.9178 1.81044C24.1156 1.07509 22.8844 1.07509 22.0822 1.81044L3.02798 19.2768C1.90074 20.3101 1.25894 21.7691 1.25894 23.2982V40.2857C1.25894 43.2987 3.7014 45.7411 6.7143 45.7411H40.2857C43.2988 45.7411 45.7411 43.2987 45.7411 40.2857V23.2982C45.7411 21.7691 45.0992 20.3101 43.9722 19.2768L24.9178 1.81044ZM5.8636 22.3702L23.5 6.20353L41.1364 22.3702C41.3966 22.6087 41.5447 22.9454 41.5447 23.2982V40.2857C41.5447 40.981 40.981 41.5446 40.2857 41.5446H26.8572V30.2143C26.8572 28.3602 25.3541 26.8571 23.5 26.8571C21.6459 26.8571 20.1429 28.3602 20.1429 30.2143V41.5446H6.7143C6.019 41.5446 5.45537 40.981 5.45537 40.2857V23.2982C5.45537 22.9454 5.60349 22.6087 5.8636 22.3702Z" fill="#077EDD"/>
</svg>
