<svg width="47" height="47" viewBox="0 0 47 47" fill="none" xmlns="http://www.w3.org/2000/svg">
<g clip-path="url(#clip0_135_144)">
<path d="M39.6562 24.6163V23.5V22.3691L42.4762 19.9016C42.9961 19.4434 43.3372 18.8162 43.4393 18.1308C43.5415 17.4455 43.398 16.7461 43.0344 16.1563L39.5681 10.2813C39.3106 9.83514 38.9402 9.4646 38.4942 9.20681C38.0482 8.94901 37.5423 8.81303 37.0272 8.8125C36.708 8.81006 36.3905 8.85967 36.0872 8.95938L32.5181 10.1638C31.9019 9.75428 31.2592 9.38627 30.5941 9.06219L29.845 5.36094C29.7107 4.68473 29.3428 4.07731 28.8058 3.645C28.2688 3.21269 27.5968 2.98304 26.9075 2.99625H20.0338C19.3445 2.98304 18.6725 3.21269 18.1355 3.645C17.5984 4.07731 17.2306 4.68473 17.0963 5.36094L16.3472 9.06219C15.6773 9.3862 15.0297 9.75419 14.4084 10.1638L10.9128 8.90063C10.6063 8.82076 10.2889 8.791 9.97282 8.8125C9.45769 8.81303 8.95176 8.94901 8.50577 9.20681C8.05979 9.4646 7.68944 9.83514 7.43188 10.2813L3.96563 16.1563C3.6228 16.7452 3.49541 17.435 3.60527 18.1076C3.71513 18.7801 4.0554 19.3936 4.56782 19.8428L7.34375 22.3838V23.5V24.6309L4.56782 27.0984C4.04093 27.5508 3.69135 28.1752 3.58111 28.8609C3.47087 29.5465 3.6071 30.249 3.96563 30.8438L7.43188 36.7188C7.68944 37.1649 8.05979 37.5354 8.50577 37.7932C8.95176 38.051 9.45769 38.187 9.97282 38.1875C10.292 38.1899 10.6095 38.1403 10.9128 38.0406L14.4819 36.8363C15.0981 37.2457 15.7409 37.6137 16.4059 37.9378L17.155 41.6391C17.2893 42.3153 17.6572 42.9227 18.1942 43.355C18.7312 43.7873 19.4032 44.017 20.0925 44.0037H27.025C27.7143 44.017 28.3863 43.7873 28.9233 43.355C29.4603 42.9227 29.8282 42.3153 29.9625 41.6391L30.7116 37.9378C31.3814 37.6138 32.0291 37.2458 32.6503 36.8363L36.2047 38.0406C36.508 38.1403 36.8255 38.1899 37.1447 38.1875C37.6598 38.187 38.1657 38.051 38.6117 37.7932C39.0577 37.5354 39.4281 37.1649 39.6856 36.7188L43.0344 30.8438C43.3772 30.2548 43.5046 29.565 43.3947 28.8924C43.2849 28.2199 42.9446 27.6064 42.4322 27.1572L39.6562 24.6163ZM37.0272 35.25L31.9894 33.5463C30.8101 34.5452 29.4622 35.326 28.0091 35.8522L26.9663 41.125H20.0338L18.9909 35.9109C17.5492 35.3698 16.2087 34.5903 15.0253 33.605L9.97282 35.25L6.50657 29.375L10.5016 25.85C10.23 24.3296 10.23 22.7732 10.5016 21.2528L6.50657 17.625L9.97282 11.75L15.0106 13.4538C16.1899 12.4548 17.5378 11.674 18.9909 11.1478L20.0338 5.875H26.9663L28.0091 11.0891C29.4508 11.6302 30.7913 12.4097 31.9747 13.395L37.0272 11.75L40.4934 17.625L36.4984 21.15C36.77 22.6704 36.77 24.2268 36.4984 25.7472L40.4934 29.375L37.0272 35.25Z" fill="#077EDD"/>
<path d="M23.5 32.3125C21.7571 32.3125 20.0532 31.7957 18.604 30.8273C17.1548 29.859 16.0253 28.4827 15.3583 26.8724C14.6913 25.2621 14.5168 23.4902 14.8568 21.7808C15.1969 20.0713 16.0362 18.5011 17.2686 17.2686C18.5011 16.0362 20.0713 15.1969 21.7808 14.8568C23.4902 14.5168 25.2621 14.6913 26.8724 15.3583C28.4827 16.0253 29.859 17.1548 30.8273 18.604C31.7957 20.0532 32.3125 21.7571 32.3125 23.5C32.3243 24.6606 32.1044 25.8118 31.6657 26.8863C31.227 27.9608 30.5783 28.937 29.7576 29.7576C28.937 30.5783 27.9608 31.227 26.8863 31.6657C25.8118 32.1044 24.6606 32.3243 23.5 32.3125ZM23.5 17.625C22.7235 17.6069 21.9515 17.7465 21.2305 18.0354C20.5096 18.3242 19.8547 18.7563 19.3055 19.3055C18.7563 19.8547 18.3242 20.5096 18.0354 21.2305C17.7465 21.9515 17.6069 22.7235 17.625 23.5C17.6069 24.2765 17.7465 25.0485 18.0354 25.7695C18.3242 26.4905 18.7563 27.1453 19.3055 27.6945C19.8547 28.2437 20.5096 28.6758 21.2305 28.9646C21.9515 29.2535 22.7235 29.3931 23.5 29.375C24.2765 29.3931 25.0485 29.2535 25.7695 28.9646C26.4905 28.6758 27.1453 28.2437 27.6945 27.6945C28.2437 27.1453 28.6758 26.4905 28.9646 25.7695C29.2535 25.0485 29.3931 24.2765 29.375 23.5C29.3931 22.7235 29.2535 21.9515 28.9646 21.2305C28.6758 20.5096 28.2437 19.8547 27.6945 19.3055C27.1453 18.7563 26.4905 18.3242 25.7695 18.0354C25.0485 17.7465 24.2765 17.6069 23.5 17.625Z" fill="#077EDD"/>
</g>
<defs>
<clipPath id="clip0_135_144">
<rect width="47" height="47" fill="white"/>
</clipPath>
</defs>
</svg>
