<svg width="599" height="310" viewBox="0 0 599 310" fill="none" xmlns="http://www.w3.org/2000/svg">
<path d="M0 307.935V217.579H27.8304L39.1328 255.227C42.4141 266.522 45.9384 287.411 45.9384 287.411H46.303C46.303 287.411 49.7059 266.522 52.9872 255.227L64.0465 217.579H92.2415V307.935H73.1612V267.494C73.1612 256.078 74.6196 234.946 74.6196 234.946H74.3765C74.3765 234.946 70.4876 254.256 67.3278 264.943L54.4456 307.935H37.4313L24.4276 264.943C21.2678 254.256 17.3788 234.946 17.3788 234.946H17.1358C17.1358 234.946 18.5941 256.078 18.5941 267.494V307.935H0Z" fill="url(#paint0_linear_30_15)"/>
<path d="M137.304 310C116.643 310 103.032 295.062 103.032 275.752C103.032 256.32 116.643 241.504 137.304 241.504C157.842 241.504 171.332 256.32 171.332 275.752C171.332 295.062 157.842 310 137.304 310ZM137.182 296.155C146.661 296.155 152.009 287.897 152.009 275.752C152.009 263.486 146.661 255.106 137.182 255.106C127.46 255.106 122.355 263.486 122.355 275.752C122.355 287.897 127.46 296.155 137.182 296.155Z" fill="url(#paint1_linear_30_15)"/>
<path d="M181.202 307.935V217.579H200.403V307.935H181.202Z" fill="url(#paint2_linear_30_15)"/>
<path d="M281.786 307.935L280.085 295.791H279.72C274.373 305.749 264.772 310 253.713 310C240.83 310 230.379 305.264 222.965 297.37C215.066 288.868 210.934 276.966 210.934 263.121C210.934 247.698 216.524 234.217 226.611 225.716C233.903 219.522 243.261 216 255.171 216C278.019 216 291.387 228.145 294.668 245.39H274.008C271.821 238.711 266.109 233.124 255.779 233.124C239.737 233.124 231.959 246.119 231.959 263.121C231.959 280.488 241.195 293.119 256.022 293.119C268.782 293.119 276.439 284.496 276.56 275.388V275.023H258.331V259.599H296.127V307.935H281.786Z" fill="url(#paint3_linear_30_15)"/>
<path d="M339.535 309.879C318.388 309.879 305.385 295.062 305.385 275.752C305.385 256.32 318.875 241.504 338.562 241.504C347.799 241.504 355.091 244.54 360.803 249.762C368.094 256.806 371.376 267.736 371.254 280.488H324.1C325.316 290.204 330.542 296.034 339.778 296.034C345.733 296.034 349.5 293.726 351.566 289.718H370.039C366.758 301.134 356.184 309.879 339.535 309.879ZM338.562 254.984C329.812 254.984 325.437 260.571 324.222 269.437H351.809C351.202 260.45 346.097 254.984 338.562 254.984Z" fill="url(#paint4_linear_30_15)"/>
<path d="M399.292 243.326V253.163H399.656C403.667 245.39 410.594 241.504 419.587 241.504C433.806 241.504 442.07 250.977 442.07 265.429V307.935H423.111V269.072C423.111 262.028 419.344 257.292 412.295 257.292C404.882 257.292 399.899 263.243 399.899 271.501V307.935H380.819V243.326H399.292Z" fill="url(#paint5_linear_30_15)"/>
<path d="M453.192 307.935V288.018H473.366V307.935H453.192Z" fill="url(#paint6_linear_30_15)"/>
<path d="M482.291 307.935L514.861 217.579H536.372L569.064 307.935H547.188L541.476 290.69H508.663L503.073 307.935H482.291ZM519.115 258.992L513.524 275.873H536.737L531.268 258.992C527.379 246.605 525.434 234.946 525.434 234.946H525.191C525.191 234.946 522.031 250.127 519.115 258.992Z" fill="url(#paint7_linear_30_15)"/>
<path d="M578.218 307.935V217.579H599V307.935H578.218Z" fill="url(#paint8_linear_30_15)"/>
<path d="M253.205 124.117C252.909 127.376 252.645 129.184 253.253 132.626C253.454 133.328 254.067 133.025 254.167 132.423C254.213 132.32 254.268 132.122 254.357 131.923C263.28 113.526 285.489 110.89 303.761 111.747C306.982 111.899 310.01 112.281 312.964 112.653C320.008 113.541 326.628 114.376 334.428 111.9C342.968 109.189 353.234 100.374 358.073 92.8836C359.298 90.9832 358.879 89.3628 358.409 87.5409C358.142 86.5101 357.859 85.4147 357.848 84.1676C357.713 70.8063 373.307 64.1637 383.64 71.8969C396.004 81.1515 389.063 100.446 373.788 100.496C373.291 100.497 372.656 100.353 371.999 100.204C370.852 99.943 369.635 99.6665 368.958 100.123C360.984 111.631 351.167 122.389 336.948 125.629C327.328 127.824 317.805 127.051 308.286 126.278C301.686 125.743 295.087 125.207 288.459 125.661C276.89 126.451 264.513 134.305 263.143 146.598C260.847 167.208 283.05 175.969 300.409 172.607C305.845 171.557 323.25 165.112 326.202 160.673C326.708 159.912 326.947 158.915 327.188 157.912C327.378 157.117 327.57 156.319 327.895 155.633C332.64 145.701 347.506 145.759 353.319 154.699C362.682 169.093 344.945 185.627 331.507 174.663H330.816C310.428 185.39 289.618 193.293 268.17 180.076C245.122 165.87 233.832 134.072 243.424 108.503C250.998 88.3177 267.529 76.6618 284.321 64.8222C296.358 56.3356 308.528 47.7545 317.63 35.8702C317.739 35.727 317.872 35.5543 318.024 35.358C319.465 33.488 322.563 29.4674 322.953 28.1595C323.122 27.5911 322.747 25.8848 322.331 23.9961C321.904 22.0522 321.434 19.9151 321.471 18.6266C322.023 -0.946322 348.822 -7.01884 358.216 9.78043C367.009 25.507 351.603 42.8673 334.953 37.4815C326.404 51.3904 314.044 62.2293 300.796 71.5737C297.279 74.0536 293.706 76.3523 290.171 78.6264C277.795 86.5882 265.886 94.2491 258.52 108.332C256.723 111.765 253.205 120.472 253.205 124.117Z" fill="url(#paint9_linear_30_15)"/>
<defs>
<linearGradient id="paint0_linear_30_15" x1="-7.65641" y1="256.928" x2="612.756" y2="256.928" gradientUnits="userSpaceOnUse">
<stop stop-color="#00DDFF"/>
<stop offset="1" stop-color="#5C7CFA"/>
</linearGradient>
<linearGradient id="paint1_linear_30_15" x1="-7.65641" y1="256.928" x2="612.756" y2="256.928" gradientUnits="userSpaceOnUse">
<stop stop-color="#00DDFF"/>
<stop offset="1" stop-color="#5C7CFA"/>
</linearGradient>
<linearGradient id="paint2_linear_30_15" x1="-7.65641" y1="256.928" x2="612.756" y2="256.928" gradientUnits="userSpaceOnUse">
<stop stop-color="#00DDFF"/>
<stop offset="1" stop-color="#5C7CFA"/>
</linearGradient>
<linearGradient id="paint3_linear_30_15" x1="-7.65641" y1="256.928" x2="612.756" y2="256.928" gradientUnits="userSpaceOnUse">
<stop stop-color="#00DDFF"/>
<stop offset="1" stop-color="#5C7CFA"/>
</linearGradient>
<linearGradient id="paint4_linear_30_15" x1="-7.65641" y1="256.928" x2="612.756" y2="256.928" gradientUnits="userSpaceOnUse">
<stop stop-color="#00DDFF"/>
<stop offset="1" stop-color="#5C7CFA"/>
</linearGradient>
<linearGradient id="paint5_linear_30_15" x1="-7.65641" y1="256.928" x2="612.756" y2="256.928" gradientUnits="userSpaceOnUse">
<stop stop-color="#00DDFF"/>
<stop offset="1" stop-color="#5C7CFA"/>
</linearGradient>
<linearGradient id="paint6_linear_30_15" x1="-7.65641" y1="256.928" x2="612.756" y2="256.928" gradientUnits="userSpaceOnUse">
<stop stop-color="#00DDFF"/>
<stop offset="1" stop-color="#5C7CFA"/>
</linearGradient>
<linearGradient id="paint7_linear_30_15" x1="-7.65641" y1="256.928" x2="612.756" y2="256.928" gradientUnits="userSpaceOnUse">
<stop stop-color="#00DDFF"/>
<stop offset="1" stop-color="#5C7CFA"/>
</linearGradient>
<linearGradient id="paint8_linear_30_15" x1="-7.65641" y1="256.928" x2="612.756" y2="256.928" gradientUnits="userSpaceOnUse">
<stop stop-color="#00DDFF"/>
<stop offset="1" stop-color="#5C7CFA"/>
</linearGradient>
<linearGradient id="paint9_linear_30_15" x1="370.332" y1="93.4978" x2="257.716" y2="148.545" gradientUnits="userSpaceOnUse">
<stop stop-color="#00DDFF"/>
<stop offset="1" stop-color="#5C7CFA"/>
</linearGradient>
</defs>
</svg>
