<svg width="1440" height="1024" viewBox="0 0 1440 1024" fill="none" xmlns="http://www.w3.org/2000/svg">
<g clip-path="url(#clip0_30_9)">
<rect width="1440" height="1024" fill="#030E21"/>
<path d="M-204.628 899.628C-203.928 915.925 -204.036 925.029 -198.755 941.627C-197.299 944.963 -194.474 943.06 -194.377 940.02C-194.22 939.484 -194.081 938.467 -193.769 937.427C-161.912 840.646 -54.0368 812.928 36.717 805.072C52.7171 803.687 67.9178 803.57 82.7438 803.455C118.101 803.182 151.328 802.925 188.185 785.533C228.545 766.491 273.377 716.155 292.299 675.95C297.088 665.752 293.949 658.025 290.419 649.336C288.422 644.42 286.3 639.197 285.418 633.044C275.905 567.131 348.475 524 404.599 555.362C471.754 592.896 450.271 692.801 374.909 703.152C372.455 703.49 369.228 703.197 365.886 702.894C360.051 702.365 353.863 701.805 350.824 704.508C319.084 766.63 277.756 826.269 209.718 851.685C163.688 868.891 116.173 871.375 68.6765 873.857C35.7425 875.578 2.81741 877.298 -29.5973 883.927C-86.1751 895.484 -142.066 942.473 -140.688 1004.1C-138.371 1107.43 -22.98 1136.02 60.4783 1107.92C86.6147 1099.14 168.253 1055.78 179.882 1031.9C181.877 1027.81 182.398 1022.72 182.921 1017.61C183.335 1013.56 183.751 1009.49 184.904 1005.89C201.744 953.683 275.16 944.134 309.775 984.451C365.52 1049.36 288.923 1142.77 215.336 1097.5L211.921 1097.96C118.394 1164.44 20.913 1217.25 -93.7042 1166.15C-216.87 1111.23 -293.654 961.622 -263.243 828.969C-239.23 724.249 -165.352 655.733 -90.3094 586.136C-36.5189 536.249 17.8702 485.808 54.9223 421.079C55.3688 420.299 55.9111 419.358 56.5279 418.288C62.4023 408.098 75.033 386.186 76.0934 379.468C76.5475 376.548 73.5661 368.368 70.2662 359.313C66.8697 349.993 63.1358 339.747 62.4625 333.358C52.2279 236.307 180.481 188.577 237.974 265.345C291.786 337.213 227.244 433.162 141.496 417.575C108.508 491.939 54.6827 553.659 -4.52339 608.586C-20.2375 623.162 -36.3519 636.882 -52.2942 650.454C-108.109 697.974 -161.815 743.697 -188.848 818.137C-195.444 836.287 -207.041 881.626 -204.628 899.628Z" fill="url(#paint0_linear_30_9)" fill-opacity="0.41"/>
<path d="M1522.6 121.052C1516.42 106.798 1513.41 98.6641 1503.05 85.7042C1500.61 83.234 1498.75 85.8901 1499.7 88.6266C1499.75 89.1571 1499.97 90.1089 1500.05 91.1399C1504.73 188.078 1418.24 249.523 1340.21 287.465C1326.45 294.154 1312.97 299.443 1299.83 304.602C1268.48 316.905 1239.01 328.467 1212.17 356.506C1182.77 387.207 1160.07 447.265 1156.95 489.475C1156.17 500.178 1161.6 505.979 1167.7 512.503C1171.15 516.193 1174.82 520.115 1177.71 525.286C1208.65 580.66 1158.82 643.772 1098.21 635.023C1025.68 624.548 1010.71 528.371 1074.2 493.46C1076.27 492.323 1079.24 491.482 1082.32 490.612C1087.69 489.092 1093.38 487.48 1095.16 484.039C1102.2 417.965 1118.61 350.829 1170.45 305.018C1205.52 274.016 1246.93 255.601 1288.33 237.193C1317.03 224.429 1345.72 211.668 1372.29 194.717C1418.66 165.141 1452.34 104.288 1430.1 49.9459C1392.79 -41.1564 1280.42 -27.2198 1215.78 26.2311C1195.53 42.9588 1137.71 109.361 1135.52 134.565C1135.14 138.888 1136.41 143.587 1137.69 148.313C1138.7 152.057 1139.72 155.817 1139.93 159.417C1142.75 211.587 1080.72 245.121 1036.18 221.072C964.468 182.363 1000.73 73.16 1081.61 88.3216L1084.49 86.7497C1145 -4.27349 1213.68 -84.4916 1333.04 -78.1409C1461.31 -71.3093 1580.63 35.553 1598.83 163.9C1613.19 265.222 1570.86 351.355 1527.86 438.847C1497.03 501.561 1465.87 564.972 1454.99 635.176C1454.86 636.022 1454.7 637.044 1454.52 638.206C1452.77 649.273 1449.01 673.067 1450.36 679.404C1450.95 682.155 1456.39 688.414 1462.42 695.341C1468.62 702.471 1475.43 710.31 1478.21 715.762C1520.41 798.583 1422.63 884.777 1345.32 836.114C1272.95 790.554 1297.62 683.207 1379.2 667.822C1383.17 590.435 1409.99 517.185 1443.91 448.142C1452.91 429.819 1462.56 412.121 1472.11 394.612C1505.54 333.314 1537.71 274.332 1536.36 198.908C1536.03 180.517 1530.88 136.239 1522.6 121.052Z" fill="url(#paint1_linear_30_9)" fill-opacity="0.24"/>
</g>
<defs>
<linearGradient id="paint0_linear_30_9" x1="353.216" y1="670.872" x2="-166.402" y2="1016.99" gradientUnits="userSpaceOnUse">
<stop stop-color="#00DDFF"/>
<stop offset="1" stop-color="#5C7CFA" stop-opacity="0.32"/>
</linearGradient>
<linearGradient id="paint1_linear_30_9" x1="1104.51" y1="514.769" x2="1448.57" y2="29.7199" gradientUnits="userSpaceOnUse">
<stop stop-color="#00DDFF"/>
<stop offset="1" stop-color="#5C7CFA" stop-opacity="0.32"/>
</linearGradient>
<clipPath id="clip0_30_9">
<rect width="1440" height="1024" fill="white"/>
</clipPath>
</defs>
</svg>
